<svg width="38" height="38" viewBox="0 0 38 38" fill="none" xmlns="http://www.w3.org/2000/svg">
<path d="M26.0325 27.6715C24.7543 28.92 23.4194 29.2486 22.0759 28.6573C20.6541 28.0528 18.6301 28.0265 17.1301 28.6573C15.2518 29.472 14.2952 28.7097 13.1734 27.6715C6.80821 21.0615 7.92566 11.2823 15.1518 10.9143C16.9126 11.0063 18.078 11.8212 19.1084 11.9C20.6475 11.5846 22.4107 10.796 24.0542 10.9143C26.0238 11.072 27.0326 11.4665 28.0108 12.8858C23.9413 15.3432 25.2696 21.2317 29 22.7429C28.2565 24.7141 27.6369 26.226 26.0325 27.6715ZM19.1084 10.9143C18.9128 7.98381 21.3412 5.23654 24.0542 5C24.4325 8.39045 20.9345 11.2428 19.1084 10.9143Z" fill="white"/>
</svg>
