<svg width="55" height="23" viewBox="0 0 55 23" fill="none" xmlns="http://www.w3.org/2000/svg">
<path d="M0.24 0.599998H8.72C10.4053 0.599998 11.9093 0.834665 13.232 1.304C14.5547 1.752 15.6747 2.424 16.592 3.32C17.5093 4.216 18.2133 5.336 18.704 6.68C19.1947 8.024 19.44 9.57067 19.44 11.32V11.96C19.44 13.752 19.184 15.3413 18.672 16.728C18.1813 18.0933 17.456 19.2453 16.496 20.184C15.5573 21.1013 14.4053 21.8053 13.04 22.296C11.6747 22.7653 10.128 23 8.4 23H0.24V0.599998ZM8.08 18.264C8.80533 18.264 9.488 18.1573 10.128 17.944C10.7893 17.7093 11.3653 17.3467 11.856 16.856C12.368 16.3653 12.7627 15.7147 13.04 14.904C13.3387 14.0933 13.488 13.112 13.488 11.96V11.32C13.488 10.232 13.3493 9.31467 13.072 8.568C12.816 7.8 12.4533 7.18133 11.984 6.712C11.536 6.22133 11.0027 5.86933 10.384 5.656C9.76533 5.44267 9.104 5.336 8.4 5.336H6V18.264H8.08ZM25.8425 5.336H18.9625V0.599998H38.4825V5.336H31.6025V23H25.8425V5.336ZM39.135 0.599998H54.975V5.016H44.895V10.2H54.015V14.36H44.895V23H39.135V0.599998Z" fill="black"/>
</svg>
