<svg width="225" height="67" viewBox="0 0 225 67" fill="none" xmlns="http://www.w3.org/2000/svg">
<g filter="url(#filter0_i_171_179)">
<path d="M224.5 58.0283C224.5 62.1548 221.155 65.5 217.028 65.5L5.88716 65.5C3.38785 65.5 1.74313 62.8934 2.81902 60.6375L30.5767 2.43592C31.1408 1.25318 32.3345 0.499983 33.6448 0.499983L217.028 0.499999C221.155 0.5 224.5 3.84519 224.5 7.9717L224.5 58.0283Z" fill="white"/>
<path d="M57.8637 25.3221L57.8609 23.1346L73.1336 23.1149L73.1364 25.3024L66.733 25.3106L66.7565 43.4868L64.2906 43.4899L64.2671 25.3138L57.8637 25.3221ZM74.2289 49.2044L74.2018 28.2044L76.4688 28.2015L76.472 30.6276L76.7504 30.6272C76.9224 30.3619 77.1606 30.0235 77.465 29.6121C77.776 29.1941 78.2196 28.8223 78.7959 28.4968C79.3788 28.1646 80.1674 27.9978 81.1617 27.9965C82.4477 27.9949 83.5817 28.3149 84.5636 28.9566C85.5454 29.5983 86.3123 30.5088 86.864 31.688C87.4157 32.8672 87.6926 34.2589 87.6946 35.8631C87.6967 37.4805 87.4235 38.8829 86.8748 40.0701C86.3261 41.2508 85.565 42.1665 84.5914 42.8174C83.6178 43.4616 82.4947 43.7846 81.2219 43.7862C80.2409 43.7875 79.4552 43.6261 78.8648 43.3021C78.2744 42.9714 77.8198 42.5975 77.5011 42.1803C77.1824 41.7564 76.9367 41.4054 76.7639 41.1272L76.5651 41.1275L76.5755 49.2013L74.2289 49.2044ZM76.5185 35.8378C76.52 36.9912 76.6903 38.0085 77.0295 38.8897C77.3687 39.7642 77.8635 40.4497 78.5137 40.946C79.164 41.4357 79.9597 41.6799 80.901 41.6787C81.8821 41.6774 82.7004 41.4178 83.356 40.9C84.0182 40.3754 84.5144 39.6721 84.8447 38.7901C85.1817 37.9014 85.3494 36.9135 85.348 35.8264C85.3466 34.7525 85.1797 33.7849 84.8471 32.9236C84.5212 32.0556 84.0264 31.3702 83.3629 30.8673C82.706 30.3577 81.8804 30.1036 80.8861 30.1048C79.9315 30.1061 79.1297 30.3491 78.4808 30.8338C77.8317 31.3119 77.3421 31.9821 77.0118 32.8442C76.6814 33.6998 76.517 34.6976 76.5185 35.8378ZM96.8478 43.766C95.3762 43.7679 94.1064 43.4448 93.0383 42.7965C91.9769 42.1417 91.157 41.2279 90.5788 40.0554C90.0072 38.8762 89.7204 37.5044 89.7184 35.94C89.7164 34.3756 89.9996 32.9965 90.5682 31.8026C91.1433 30.602 91.9442 29.6663 92.9708 28.9955C94.004 28.318 95.21 27.9784 96.5888 27.9766C97.3842 27.9756 98.1699 28.1071 98.9458 28.3713C99.7217 28.6354 100.428 29.0654 101.065 29.6611C101.703 30.2503 102.211 31.0318 102.59 32.0058C102.969 32.9797 103.159 34.1793 103.161 35.6045L103.162 36.5988L91.3897 36.614L91.3871 34.5856L100.773 34.5735C100.772 33.7117 100.599 32.943 100.253 32.2673C99.9145 31.5916 99.4299 31.0586 98.7996 30.6683C98.176 30.278 97.44 30.0834 96.5915 30.0845C95.6568 30.0857 94.8484 30.3188 94.1663 30.7837C93.4907 31.242 92.9711 31.8392 92.6075 32.5755C92.2439 33.3118 92.0626 34.1008 92.0637 34.9427L92.0654 36.2949C92.0669 37.4483 92.2671 38.4258 92.6658 39.2274C93.0712 40.0223 93.6321 40.6281 94.3486 41.0448C95.065 41.4549 95.8972 41.6593 96.8451 41.6581C97.4616 41.6573 98.0183 41.5704 98.5152 41.3974C99.0188 41.2178 99.4526 40.9521 99.8168 40.6003C100.181 40.2418 100.462 39.7973 100.66 39.2668L102.928 39.9002C102.69 40.6695 102.29 41.3461 101.728 41.9302C101.165 42.5076 100.469 42.9593 99.6412 43.2852C98.8131 43.6044 97.8819 43.7647 96.8478 43.766ZM108.243 39.9729L115.586 28.1509L118.29 28.1474L118.31 43.4201L115.963 43.4231L115.948 31.6107L108.645 43.4326L105.901 43.4362L105.881 28.1634L108.228 28.1604L108.243 39.9729ZM114.028 23.062L116.215 23.0592C116.217 24.133 115.847 25.0118 115.105 25.6955C114.364 26.3793 113.357 26.722 112.084 26.7236C110.831 26.7252 109.833 26.3851 109.09 25.7033C108.353 25.0215 107.984 24.1437 107.983 23.0698L110.17 23.067C110.171 23.584 110.314 24.0379 110.599 24.4286C110.891 24.8194 111.386 25.0143 112.082 25.0134C112.778 25.0125 113.275 24.8163 113.572 24.4248C113.877 24.0333 114.029 23.579 114.028 23.062ZM120.416 43.4174L120.413 41.2299L120.97 41.2292C121.427 41.2286 121.808 41.1386 122.113 40.9592C122.417 40.7732 122.662 40.4514 122.847 39.9938C123.039 39.5295 123.184 38.8863 123.282 38.0642C123.387 37.2355 123.462 36.1814 123.507 34.902L123.777 28.1403L133.958 28.1271L133.978 43.3998L131.632 43.4029L131.615 30.3177L126.007 30.3249L125.775 35.7741C125.724 37.027 125.612 38.1308 125.441 39.0856C125.277 40.0337 125.023 40.8295 124.679 41.4729C124.342 42.1164 123.891 42.6009 123.328 42.9264C122.765 43.2519 122.06 43.4153 121.211 43.4164L120.416 43.4174ZM143.847 43.7053C142.376 43.7072 141.106 43.384 140.038 42.7358C138.976 42.0809 138.157 41.1672 137.578 39.9946C137.007 38.8154 136.72 37.4436 136.718 35.8793C136.716 34.3149 136.999 32.9357 137.568 31.7418C138.143 30.5412 138.944 29.6055 139.97 28.9347C141.003 28.2572 142.209 27.9176 143.588 27.9158C144.384 27.9148 145.169 28.0464 145.945 28.3105C146.721 28.5746 147.428 29.0046 148.065 29.6004C148.702 30.1895 149.21 30.9711 149.589 31.945C149.968 32.9189 150.159 34.1185 150.161 35.5437L150.162 36.538L138.389 36.5532L138.387 34.5248L147.773 34.5127C147.772 33.6509 147.598 32.8822 147.253 32.2065C146.914 31.5308 146.429 30.9978 145.799 30.6076C145.176 30.2173 144.439 30.0227 143.591 30.0238C142.656 30.025 141.848 30.258 141.166 30.7229C140.49 31.1812 139.971 31.7785 139.607 32.5147C139.243 33.251 139.062 34.04 139.063 34.8819L139.065 36.2342C139.066 37.3876 139.267 38.3651 139.665 39.1666C140.071 39.9616 140.632 40.5674 141.348 40.9841C142.065 41.3941 142.897 41.5985 143.845 41.5973C144.461 41.5965 145.018 41.5096 145.515 41.3366C146.018 41.157 146.452 40.8913 146.816 40.5395C147.18 40.1811 147.462 39.7366 147.66 39.206L149.928 39.8395C149.69 40.6087 149.29 41.2854 148.727 41.8694C148.164 42.4468 147.469 42.8985 146.641 43.2244C145.813 43.5436 144.881 43.7039 143.847 43.7053ZM152.908 49.1027L152.881 28.1027L155.148 28.0997L155.151 30.5259L155.429 30.5255C155.601 30.2601 155.839 29.9218 156.144 29.5104C156.455 29.0924 156.898 28.7206 157.475 28.395C158.058 28.0628 158.846 27.8961 159.841 27.8948C161.127 27.8931 162.261 28.2132 163.242 28.8549C164.224 29.4966 164.991 30.4071 165.543 31.5863C166.095 32.7655 166.371 34.1572 166.373 35.7614C166.376 37.3788 166.102 38.7811 165.554 39.9684C165.005 41.149 164.244 42.0648 163.27 42.7157C162.297 43.3599 161.173 43.6829 159.901 43.6845C158.92 43.6858 158.134 43.5244 157.544 43.2003C156.953 42.8697 156.499 42.4957 156.18 42.0785C155.861 41.6547 155.615 41.3037 155.443 41.0255L155.244 41.0258L155.254 49.0996L152.908 49.1027ZM155.197 35.736C155.199 36.8895 155.369 37.9068 155.708 38.7879C156.048 39.6625 156.542 40.3479 157.193 40.8443C157.843 41.334 158.639 41.5782 159.58 41.577C160.561 41.5757 161.379 41.3161 162.035 40.7982C162.697 40.2737 163.193 39.5704 163.524 38.6883C163.86 37.7997 164.028 36.8117 164.027 35.7246C164.025 34.6508 163.858 33.6832 163.526 32.8219C163.2 31.9539 162.705 31.2685 162.042 30.7655C161.385 30.256 160.559 30.0018 159.565 30.0031C158.61 30.0044 157.809 30.2473 157.16 30.7321C156.511 31.2102 156.021 31.8803 155.691 32.7425C155.36 33.598 155.196 34.5959 155.197 35.736Z" fill="black"/>
</g>
<defs>
<filter id="filter0_i_171_179" x="0.5" y="0.5" width="228.669" height="66" filterUnits="userSpaceOnUse" color-interpolation-filters="sRGB">
<feFlood flood-opacity="0" result="BackgroundImageFix"/>
<feBlend mode="normal" in="SourceGraphic" in2="BackgroundImageFix" result="shape"/>
<feColorMatrix in="SourceAlpha" type="matrix" values="0 0 0 0 0 0 0 0 0 0 0 0 0 0 0 0 0 0 127 0" result="hardAlpha"/>
<feOffset dx="17.5072"/>
<feGaussianBlur stdDeviation="2.3343"/>
<feComposite in2="hardAlpha" operator="arithmetic" k2="-1" k3="1"/>
<feColorMatrix type="matrix" values="0 0 0 0 0 0 0 0 0 0 0 0 0 0 0 0 0 0 0.16 0"/>
<feBlend mode="normal" in2="shape" result="effect1_innerShadow_171_179"/>
</filter>
</defs>
</svg>
