<svg width="38" height="38" viewBox="0 0 38 38" fill="none" xmlns="http://www.w3.org/2000/svg">
<path d="M30.9443 19.9942L26.9617 22.9733L23.9748 19.0011L26.9617 16.022L30.9443 18.0081C31.1777 18.137 31.8048 17.7818 31.9399 18.0081C32.0751 18.2344 31.9399 18.7391 31.9399 19.0011C31.9399 19.2631 32.0751 19.7679 31.9399 19.9942C31.8048 20.2205 31.1777 19.8652 30.9443 19.9942ZM10.0357 8.07758C9.96026 8.25649 10.0354 7.88408 10.0357 8.07758V29.9246C9.95539 29.7449 10.0357 30.1401 10.0357 29.9246L21.9835 19.0011L10.0357 8.07758ZM22.9791 18.0081L25.9661 15.0289L12.027 7.08453C11.7361 6.92121 11.3632 7.03633 11.0313 7.08453L22.9791 18.0081ZM22.9791 19.9942L11.0313 30.9177C11.3342 30.9534 11.7281 31.0835 12.027 30.9177L25.9661 22.9733L22.9791 19.9942Z" fill="white"/>
</svg>
