<svg width="246" height="16" viewBox="0 0 246 16" fill="none" xmlns="http://www.w3.org/2000/svg">
<path d="M26.5 10C29.3969 10 31.5 7.62947 31.5 5C31.5 2.37053 29.3969 0 26.5 0H0.5V16H8.5V10H11.5L19.5 15C20.7026 15.8034 22.0068 16 23.5 16H32.5L21.5 10H26.5ZM17.5 7H8.5V3H21.5C22.7428 3 23.5045 3.88816 23.5 5C23.4911 6.12808 22.7607 6.98783 21.5 7H17.5Z" fill="white"/>
<path d="M68.5 13H43.5V9H69.5V7H43.5V3H68.5C70.9007 3 71.9353 1.42024 73.5 0C64.4069 0 44.5797 0 35.5 0V16C44.5797 16 64.4024 16 73.5 16C71.9577 14.6001 70.9052 13 68.5 13Z" fill="white"/>
<path d="M98.5 16H106.5V7H91.5C89.0993 7 88.0647 7.57976 86.5 9H98.5V13C94.3334 13 90.6666 13 86.5 13C83.6076 13 81.5 10.8161 81.5 8C81.5 5.10677 84.1127 3 86.5 3H101.5C103.901 3 104.935 1.42024 106.5 0H82.5C77.6763 0 73.5 3.62161 73.5 8C73.5 12.3784 77.6763 16 82.5 16C87.6143 16 93.3857 16 98.5 16Z" fill="white"/>
<path d="M131.5 0H120.5L109.5 16H114.5L117.5 12H130.5L133.5 16H142.5L131.5 0ZM119.5 10L123.5 3L128.5 10H119.5Z" fill="white"/>
<path d="M171.5 3V16H180.5V0H172.5C170.712 0.0527517 169.39 0.709612 168.5 2L162.5 10L155.5 2C154.423 0.729901 152.369 0 150.5 0H144.5V16H147.5V3L158.5 16H162.5L171.5 3Z" fill="white"/>
<path d="M208.5 3C210.901 3 211.935 1.42024 213.5 0C204.407 0 193.58 0 184.5 0V16C193.58 16 204.407 16 213.5 16C211.958 14.6001 210.905 13 208.5 13H192.5V9H210.5V7H192.5V3H208.5Z" fill="white"/>
<path d="M244.5 9C244.236 8.50089 243.929 8.38144 243.5 8C242.575 7.18032 241.89 7 240.5 7H225.5C224.288 7 223.5 6.09967 223.5 5C223.5 3.90033 224.288 3 225.5 3H238.5C239.859 3 241.539 1.87243 242.5 1L243.5 0H219.5C216.679 0 214.5 2.43546 214.5 5C214.5 5.71418 215.178 6.39133 215.5 7C215.764 7.49911 216.071 7.61856 216.5 8C217.425 8.81968 218.11 9 219.5 9H234.5C235.712 9 237.5 9.90033 237.5 11C237.5 12.0997 235.712 13 234.5 13H221.5C220.141 13 218.461 14.1276 217.5 15L216.5 16H240.5C243.321 16 245.5 13.5645 245.5 11C245.5 10.2858 244.822 9.60462 244.5 9Z" fill="white"/>
</svg>
