<svg width="96" height="16" viewBox="0 0 96 16" fill="none" xmlns="http://www.w3.org/2000/svg">
<path d="M8 2L9.4 6.4L14 6.33333L10.2667 9.06667L11.7333 13.4L8 10.6667L4.26667 13.4L5.73333 9.06667L2 6.33333L6.6 6.4L8 2Z" fill="#FFB200" stroke="#FFB200" stroke-linecap="round" stroke-linejoin="round"/>
<path d="M28 2L29.4 6.4L34 6.33333L30.2667 9.06667L31.7333 13.4L28 10.6667L24.2667 13.4L25.7333 9.06667L22 6.33333L26.6 6.4L28 2Z" fill="#FFB200" stroke="#FFB200" stroke-linecap="round" stroke-linejoin="round"/>
<path d="M48 2L49.4 6.4L54 6.33333L50.2667 9.06667L51.7333 13.4L48 10.6667L44.2667 13.4L45.7333 9.06667L42 6.33333L46.6 6.4L48 2Z" fill="#FFB200" stroke="#FFB200" stroke-linecap="round" stroke-linejoin="round"/>
<path d="M68 2L69.4 6.4L74 6.33333L70.2667 9.06667L71.7333 13.4L68 10.6667L64.2667 13.4L65.7333 9.06667L62 6.33333L66.6 6.4L68 2Z" fill="#FFB200" stroke="#FFB200" stroke-linecap="round" stroke-linejoin="round"/>
<path d="M88 2L89.4 6.4L94 6.33333L90.2667 9.06667L91.7333 13.4L88 10.6667L84.2667 13.4L85.7333 9.06667L82 6.33333L86.6 6.4L88 2Z" stroke="#FFB200" stroke-linecap="round" stroke-linejoin="round"/>
</svg>
