<svg width="38" height="38" viewBox="0 0 38 38" fill="none" xmlns="http://www.w3.org/2000/svg">
<path d="M28 15C28 16.76 26.7946 18 25 18C23.1893 18 22 16.7548 22 15C22 13.2452 23.1946 12 25 12C26.7946 12 28 13.24 28 15ZM31 15C31 18.2804 28.3589 21 25 21L19 25C18.7857 27.239 17.3571 29 15 29C12.8304 29 10.4446 27.9891 10 26L7 24V19L12 21C12.8089 20.521 13.9393 19.9063 15 20L19 15C19.0268 11.7561 21.6518 9 25 9C28.3643 9 31 11.7352 31 15ZM18 25C18 23.1932 16.8589 21 15 21C14.7589 21 14.2411 20.9479 14 21L15 22C16.3661 22.5311 17.5518 23.6722 17 25C16.4536 26.3278 14.3661 27.5467 13 27C12.4536 26.7917 12.5464 26.2031 12 26C12.5625 27.0258 13.7143 28 15 28C16.8589 28 18 26.8068 18 25ZM29 15C29 12.8131 27.2446 11 25 11C22.7339 11 21 12.8131 21 15C21 17.1973 22.7393 19 25 19C27.2446 19.0052 29 17.2026 29 15Z" fill="white"/>
</svg>
