<svg width="38" height="38" viewBox="0 0 38 38" fill="none" xmlns="http://www.w3.org/2000/svg">
<path d="M29.9461 26H26.9531C25.9617 26 25.7374 24.756 23.9602 23.0134C22.4069 21.5467 22.3578 22.0179 21.9649 22.0179C21.4214 22.0179 20.9672 22.2806 20.9672 23.0134V25.0045C20.9672 25.6292 20.6377 26 18.9719 26C17.3558 25.8936 16.3704 25.8206 14.9813 25.0045C13.5921 24.1884 11.8478 22.369 10.9906 21.0224C8.95531 18.5403 7.68438 16.1707 7 13.0581C7 12.6732 7.24861 12.0626 7.99766 12.0626H10.9906C11.6639 12.0626 11.724 12.3793 11.9883 13.0581C13.2601 16.7256 15.0977 20.0268 15.9789 20.0268C16.3167 20.0268 16.9766 19.8564 16.9766 19.0313V15.0492C16.8651 13.3258 14.9813 13.6818 14.9813 13.0581C14.9931 12.8936 15.8534 12.1725 15.9789 12.0626C15.8107 12.0558 16.1044 11.9527 15.9789 12.0626H19.9695C20.5325 12.0626 20.9672 12.3985 20.9672 13.0581V18.0358C20.9672 18.5862 20.7972 19.0313 20.9672 19.0313C21.305 19.0313 22.3433 18.6414 22.9625 18.0358C24.2898 16.4497 25.1481 14.9506 25.9555 13.0581C26.0381 12.8309 25.7495 12.1947 25.9555 12.0626C26.1614 11.9305 26.7075 12.0459 26.9531 12.0626H29.9461C30.7319 12.0626 30.1127 12.5088 29.9461 13.0581C28.993 15.1501 28.3385 17.1858 26.9531 19.0313C26.6705 19.4534 26.5579 19.5315 26.9531 20.0268C27.2128 20.4118 28.3315 21.3031 28.9484 22.0179C29.8468 22.8959 30.3797 23.8923 30.9438 25.0045C31.1689 25.7204 30.694 26 29.9461 26Z" fill="white"/>
</svg>
